<mxfile host="app.diagrams.net" agent="Mozilla/5.0 (Windows NT 10.0; Win64; x64; rv:130.0) Gecko/20100101 Firefox/130.0" version="24.7.14">
  <diagram id="YTVPyqOurH8s7ZfWGCV4" name="Page-1">
    <mxGraphModel dx="1105" dy="538" grid="1" gridSize="10" guides="1" tooltips="1" connect="1" arrows="1" fold="1" page="1" pageScale="1" pageWidth="850" pageHeight="1100" math="0" shadow="0">
      <root>
        <mxCell id="0" />
        <mxCell id="1" parent="0" />
        <mxCell id="qrLywVSfVbjWkEtIoeux-8" value="" style="edgeStyle=orthogonalEdgeStyle;rounded=0;orthogonalLoop=1;jettySize=auto;html=1;entryX=-0.021;entryY=0.5;entryDx=0;entryDy=0;entryPerimeter=0;" parent="1" source="qrLywVSfVbjWkEtIoeux-1" target="qrLywVSfVbjWkEtIoeux-7" edge="1">
          <mxGeometry relative="1" as="geometry">
            <Array as="points">
              <mxPoint x="55" y="90" />
              <mxPoint x="125" y="90" />
              <mxPoint x="125" y="105" />
            </Array>
          </mxGeometry>
        </mxCell>
        <mxCell id="qrLywVSfVbjWkEtIoeux-10" value="" style="edgeStyle=orthogonalEdgeStyle;rounded=0;orthogonalLoop=1;jettySize=auto;html=1;" parent="1" source="qrLywVSfVbjWkEtIoeux-1" target="qrLywVSfVbjWkEtIoeux-9" edge="1">
          <mxGeometry relative="1" as="geometry" />
        </mxCell>
        <mxCell id="qrLywVSfVbjWkEtIoeux-1" value="Patient&lt;br&gt;" style="shape=umlActor;verticalLabelPosition=bottom;verticalAlign=top;html=1;outlineConnect=0;" parent="1" vertex="1">
          <mxGeometry x="40" y="190" width="30" height="60" as="geometry" />
        </mxCell>
        <mxCell id="qrLywVSfVbjWkEtIoeux-6" value="Mister Ed" style="swimlane;" parent="1" vertex="1">
          <mxGeometry x="220" y="40" width="470" height="470" as="geometry" />
        </mxCell>
        <mxCell id="qrLywVSfVbjWkEtIoeux-7" value="System Registration" style="ellipse;whiteSpace=wrap;html=1;verticalAlign=top;" parent="qrLywVSfVbjWkEtIoeux-6" vertex="1">
          <mxGeometry x="35" y="50" width="120" height="30" as="geometry" />
        </mxCell>
        <mxCell id="qrLywVSfVbjWkEtIoeux-9" value="Log In" style="ellipse;whiteSpace=wrap;html=1;verticalAlign=top;" parent="qrLywVSfVbjWkEtIoeux-6" vertex="1">
          <mxGeometry x="35" y="130" width="120" height="30" as="geometry" />
        </mxCell>
        <mxCell id="qrLywVSfVbjWkEtIoeux-15" value="" style="endArrow=classic;html=1;rounded=0;entryX=0.625;entryY=0.95;entryDx=0;entryDy=0;entryPerimeter=0;" parent="qrLywVSfVbjWkEtIoeux-6" target="qrLywVSfVbjWkEtIoeux-7" edge="1">
          <mxGeometry relative="1" as="geometry">
            <mxPoint x="90" y="129" as="sourcePoint" />
            <mxPoint x="190" y="129" as="targetPoint" />
          </mxGeometry>
        </mxCell>
        <mxCell id="qrLywVSfVbjWkEtIoeux-16" value="Includes" style="edgeLabel;resizable=0;html=1;align=center;verticalAlign=middle;" parent="qrLywVSfVbjWkEtIoeux-15" connectable="0" vertex="1">
          <mxGeometry relative="1" as="geometry" />
        </mxCell>
        <mxCell id="qrLywVSfVbjWkEtIoeux-20" value="Wait Times" style="ellipse;whiteSpace=wrap;html=1;" parent="qrLywVSfVbjWkEtIoeux-6" vertex="1">
          <mxGeometry x="85" y="190" width="120" height="40" as="geometry" />
        </mxCell>
        <mxCell id="qrLywVSfVbjWkEtIoeux-27" value="" style="endArrow=classic;html=1;rounded=0;entryX=0.6;entryY=1.017;entryDx=0;entryDy=0;entryPerimeter=0;exitX=0.383;exitY=-0.062;exitDx=0;exitDy=0;exitPerimeter=0;" parent="qrLywVSfVbjWkEtIoeux-6" source="qrLywVSfVbjWkEtIoeux-20" target="qrLywVSfVbjWkEtIoeux-9" edge="1">
          <mxGeometry relative="1" as="geometry">
            <mxPoint x="100" y="139" as="sourcePoint" />
            <mxPoint x="120" y="88.5" as="targetPoint" />
          </mxGeometry>
        </mxCell>
        <mxCell id="qrLywVSfVbjWkEtIoeux-28" value="Includes" style="edgeLabel;resizable=0;html=1;align=center;verticalAlign=middle;" parent="qrLywVSfVbjWkEtIoeux-27" connectable="0" vertex="1">
          <mxGeometry relative="1" as="geometry" />
        </mxCell>
        <mxCell id="qrLywVSfVbjWkEtIoeux-29" value="Questionnaire" style="ellipse;whiteSpace=wrap;html=1;" parent="qrLywVSfVbjWkEtIoeux-6" vertex="1">
          <mxGeometry x="120" y="280" width="120" height="40" as="geometry" />
        </mxCell>
        <mxCell id="qrLywVSfVbjWkEtIoeux-30" value="" style="endArrow=classic;html=1;rounded=0;exitX=0.5;exitY=1;exitDx=0;exitDy=0;" parent="qrLywVSfVbjWkEtIoeux-6" source="qrLywVSfVbjWkEtIoeux-20" target="qrLywVSfVbjWkEtIoeux-29" edge="1">
          <mxGeometry relative="1" as="geometry">
            <mxPoint x="150" y="270" as="sourcePoint" />
            <mxPoint x="250" y="270" as="targetPoint" />
          </mxGeometry>
        </mxCell>
        <mxCell id="qrLywVSfVbjWkEtIoeux-31" value="Extends" style="edgeLabel;resizable=0;html=1;align=center;verticalAlign=middle;" parent="qrLywVSfVbjWkEtIoeux-30" connectable="0" vertex="1">
          <mxGeometry relative="1" as="geometry" />
        </mxCell>
        <mxCell id="qrLywVSfVbjWkEtIoeux-38" value="Notification" style="ellipse;whiteSpace=wrap;html=1;" parent="qrLywVSfVbjWkEtIoeux-6" vertex="1">
          <mxGeometry x="190" y="350" width="120" height="40" as="geometry" />
        </mxCell>
        <mxCell id="qrLywVSfVbjWkEtIoeux-39" value="" style="endArrow=classic;html=1;rounded=0;entryX=0.5;entryY=0;entryDx=0;entryDy=0;exitX=0.575;exitY=0.988;exitDx=0;exitDy=0;exitPerimeter=0;" parent="qrLywVSfVbjWkEtIoeux-6" source="qrLywVSfVbjWkEtIoeux-29" target="qrLywVSfVbjWkEtIoeux-38" edge="1">
          <mxGeometry relative="1" as="geometry">
            <mxPoint x="150" y="270" as="sourcePoint" />
            <mxPoint x="250" y="270" as="targetPoint" />
          </mxGeometry>
        </mxCell>
        <mxCell id="qrLywVSfVbjWkEtIoeux-40" value="Includes" style="edgeLabel;resizable=0;html=1;align=center;verticalAlign=middle;" parent="qrLywVSfVbjWkEtIoeux-39" connectable="0" vertex="1">
          <mxGeometry relative="1" as="geometry" />
        </mxCell>
        <mxCell id="qrLywVSfVbjWkEtIoeux-48" value="Register In Queue" style="ellipse;whiteSpace=wrap;html=1;" parent="qrLywVSfVbjWkEtIoeux-6" vertex="1">
          <mxGeometry x="140" y="420" width="120" height="40" as="geometry" />
        </mxCell>
        <mxCell id="qrLywVSfVbjWkEtIoeux-55" value="" style="endArrow=classic;html=1;rounded=0;exitX=0.025;exitY=0.188;exitDx=0;exitDy=0;entryX=0;entryY=1;entryDx=0;entryDy=0;exitPerimeter=0;" parent="qrLywVSfVbjWkEtIoeux-6" source="qrLywVSfVbjWkEtIoeux-48" target="qrLywVSfVbjWkEtIoeux-29" edge="1">
          <mxGeometry relative="1" as="geometry">
            <mxPoint x="150" y="290" as="sourcePoint" />
            <mxPoint x="250" y="290" as="targetPoint" />
          </mxGeometry>
        </mxCell>
        <mxCell id="qrLywVSfVbjWkEtIoeux-56" value="Includes" style="edgeLabel;resizable=0;html=1;align=center;verticalAlign=middle;" parent="qrLywVSfVbjWkEtIoeux-55" connectable="0" vertex="1">
          <mxGeometry relative="1" as="geometry" />
        </mxCell>
        <mxCell id="qrLywVSfVbjWkEtIoeux-18" style="edgeStyle=orthogonalEdgeStyle;rounded=0;orthogonalLoop=1;jettySize=auto;html=1;entryX=1;entryY=0.5;entryDx=0;entryDy=0;" parent="1" source="qrLywVSfVbjWkEtIoeux-17" target="qrLywVSfVbjWkEtIoeux-7" edge="1">
          <mxGeometry relative="1" as="geometry">
            <Array as="points">
              <mxPoint x="578" y="230" />
              <mxPoint x="578" y="105" />
            </Array>
          </mxGeometry>
        </mxCell>
        <mxCell id="qrLywVSfVbjWkEtIoeux-19" style="edgeStyle=orthogonalEdgeStyle;rounded=0;orthogonalLoop=1;jettySize=auto;html=1;entryX=1;entryY=0.5;entryDx=0;entryDy=0;" parent="1" source="qrLywVSfVbjWkEtIoeux-17" target="qrLywVSfVbjWkEtIoeux-9" edge="1">
          <mxGeometry relative="1" as="geometry">
            <Array as="points">
              <mxPoint x="578" y="230" />
              <mxPoint x="578" y="185" />
            </Array>
          </mxGeometry>
        </mxCell>
        <mxCell id="qrLywVSfVbjWkEtIoeux-17" value="Medical Staff" style="shape=umlActor;verticalLabelPosition=bottom;verticalAlign=top;html=1;outlineConnect=0;" parent="1" vertex="1">
          <mxGeometry x="780" y="210" width="30" height="60" as="geometry" />
        </mxCell>
        <mxCell id="qrLywVSfVbjWkEtIoeux-21" value="" style="endArrow=classic;html=1;rounded=0;" parent="1" target="qrLywVSfVbjWkEtIoeux-20" edge="1">
          <mxGeometry relative="1" as="geometry">
            <mxPoint x="70" y="239.5" as="sourcePoint" />
            <mxPoint x="170" y="239.5" as="targetPoint" />
          </mxGeometry>
        </mxCell>
        <mxCell id="qrLywVSfVbjWkEtIoeux-22" value="View" style="edgeLabel;resizable=0;html=1;align=center;verticalAlign=middle;" parent="qrLywVSfVbjWkEtIoeux-21" connectable="0" vertex="1">
          <mxGeometry relative="1" as="geometry" />
        </mxCell>
        <mxCell id="qrLywVSfVbjWkEtIoeux-24" value="" style="endArrow=classic;html=1;rounded=0;entryX=1;entryY=0.5;entryDx=0;entryDy=0;" parent="1" target="qrLywVSfVbjWkEtIoeux-20" edge="1">
          <mxGeometry relative="1" as="geometry">
            <mxPoint x="780" y="240" as="sourcePoint" />
            <mxPoint x="500" y="300" as="targetPoint" />
          </mxGeometry>
        </mxCell>
        <mxCell id="qrLywVSfVbjWkEtIoeux-25" value="Update" style="edgeLabel;resizable=0;html=1;align=center;verticalAlign=middle;" parent="qrLywVSfVbjWkEtIoeux-24" connectable="0" vertex="1">
          <mxGeometry relative="1" as="geometry" />
        </mxCell>
        <mxCell id="qrLywVSfVbjWkEtIoeux-32" value="" style="endArrow=classic;html=1;rounded=0;entryX=1;entryY=0.5;entryDx=0;entryDy=0;" parent="1" source="qrLywVSfVbjWkEtIoeux-17" target="qrLywVSfVbjWkEtIoeux-29" edge="1">
          <mxGeometry relative="1" as="geometry">
            <mxPoint x="340" y="300" as="sourcePoint" />
            <mxPoint x="500" y="300" as="targetPoint" />
          </mxGeometry>
        </mxCell>
        <mxCell id="qrLywVSfVbjWkEtIoeux-33" value="Assess" style="edgeLabel;resizable=0;html=1;align=center;verticalAlign=middle;" parent="qrLywVSfVbjWkEtIoeux-32" connectable="0" vertex="1">
          <mxGeometry relative="1" as="geometry" />
        </mxCell>
        <mxCell id="qrLywVSfVbjWkEtIoeux-35" value="" style="endArrow=classic;html=1;rounded=0;exitX=1;exitY=1;exitDx=0;exitDy=0;exitPerimeter=0;entryX=0;entryY=0.5;entryDx=0;entryDy=0;" parent="1" source="qrLywVSfVbjWkEtIoeux-1" target="qrLywVSfVbjWkEtIoeux-29" edge="1">
          <mxGeometry relative="1" as="geometry">
            <mxPoint x="340" y="300" as="sourcePoint" />
            <mxPoint x="500" y="300" as="targetPoint" />
          </mxGeometry>
        </mxCell>
        <mxCell id="qrLywVSfVbjWkEtIoeux-36" value="Fill Out" style="edgeLabel;resizable=0;html=1;align=center;verticalAlign=middle;" parent="qrLywVSfVbjWkEtIoeux-35" connectable="0" vertex="1">
          <mxGeometry relative="1" as="geometry" />
        </mxCell>
        <mxCell id="qrLywVSfVbjWkEtIoeux-41" value="" style="endArrow=classic;html=1;rounded=0;entryX=0;entryY=0.5;entryDx=0;entryDy=0;" parent="1" target="qrLywVSfVbjWkEtIoeux-38" edge="1">
          <mxGeometry relative="1" as="geometry">
            <mxPoint x="80" y="280" as="sourcePoint" />
            <mxPoint x="470" y="300" as="targetPoint" />
          </mxGeometry>
        </mxCell>
        <mxCell id="qrLywVSfVbjWkEtIoeux-42" value="View" style="edgeLabel;resizable=0;html=1;align=center;verticalAlign=middle;" parent="qrLywVSfVbjWkEtIoeux-41" connectable="0" vertex="1">
          <mxGeometry relative="1" as="geometry" />
        </mxCell>
        <mxCell id="qrLywVSfVbjWkEtIoeux-43" value="" style="endArrow=classic;html=1;rounded=0;entryX=0.95;entryY=0.763;entryDx=0;entryDy=0;entryPerimeter=0;" parent="1" source="qrLywVSfVbjWkEtIoeux-17" target="qrLywVSfVbjWkEtIoeux-38" edge="1">
          <mxGeometry relative="1" as="geometry">
            <mxPoint x="370" y="300" as="sourcePoint" />
            <mxPoint x="470" y="300" as="targetPoint" />
          </mxGeometry>
        </mxCell>
        <mxCell id="qrLywVSfVbjWkEtIoeux-44" value="Sends" style="edgeLabel;resizable=0;html=1;align=center;verticalAlign=middle;" parent="qrLywVSfVbjWkEtIoeux-43" connectable="0" vertex="1">
          <mxGeometry relative="1" as="geometry" />
        </mxCell>
        <mxCell id="qrLywVSfVbjWkEtIoeux-49" value="" style="endArrow=classic;html=1;rounded=0;entryX=0;entryY=0.5;entryDx=0;entryDy=0;" parent="1" target="qrLywVSfVbjWkEtIoeux-48" edge="1">
          <mxGeometry relative="1" as="geometry">
            <mxPoint x="50" y="280" as="sourcePoint" />
            <mxPoint x="470" y="330" as="targetPoint" />
          </mxGeometry>
        </mxCell>
        <mxCell id="qrLywVSfVbjWkEtIoeux-50" value="Request" style="edgeLabel;resizable=0;html=1;align=center;verticalAlign=middle;" parent="qrLywVSfVbjWkEtIoeux-49" connectable="0" vertex="1">
          <mxGeometry relative="1" as="geometry" />
        </mxCell>
        <mxCell id="qrLywVSfVbjWkEtIoeux-53" value="" style="endArrow=classic;html=1;rounded=0;entryX=1;entryY=0.5;entryDx=0;entryDy=0;" parent="1" target="qrLywVSfVbjWkEtIoeux-48" edge="1">
          <mxGeometry relative="1" as="geometry">
            <mxPoint x="780" y="300" as="sourcePoint" />
            <mxPoint x="470" y="330" as="targetPoint" />
          </mxGeometry>
        </mxCell>
        <mxCell id="qrLywVSfVbjWkEtIoeux-54" value="Approve" style="edgeLabel;resizable=0;html=1;align=center;verticalAlign=middle;" parent="qrLywVSfVbjWkEtIoeux-53" connectable="0" vertex="1">
          <mxGeometry relative="1" as="geometry" />
        </mxCell>
      </root>
    </mxGraphModel>
  </diagram>
</mxfile>
